<?xml version="1.0" standalone="no"?>
<!DOCTYPE svg PUBLIC "-//W3C//DTD SVG 20010904//EN"
 "http://www.w3.org/TR/2001/REC-SVG-20010904/DTD/svg10.dtd">
<svg version="1.0" xmlns="http://www.w3.org/2000/svg"
 width="1024.000000pt" height="1024.000000pt" viewBox="0 0 1024.000000 1024.000000"
 preserveAspectRatio="xMidYMid meet">

<g transform="translate(0.000000,1024.000000) scale(0.100000,-0.100000)"
fill="#FFFFFF" stroke="none">
<path d="M4755 9084 c-96 -7 -272 -32 -473 -69 -555 -101 -1003 -280 -1457
-581 -552 -367 -986 -847 -1319 -1461 -136 -250 -218 -456 -299 -758 -75 -277
-109 -471 -132 -760 -57 -702 61 -1392 338 -1976 162 -342 378 -674 606 -934
376 -427 757 -717 1276 -971 427 -209 778 -311 1275 -371 209 -25 711 -25 905
0 342 44 548 90 810 180 269 93 642 279 905 451 284 186 479 349 695 582 295
318 522 645 701 1009 202 414 306 764 371 1250 22 165 25 683 5 850 -96 801
-378 1473 -887 2115 -223 281 -502 544 -775 733 -281 193 -748 423 -1070 526
-241 77 -540 140 -785 167 -136 14 -569 26 -690 18z m626 -240 c90 -8 196 -22
234 -30 39 -8 129 -26 200 -39 153 -29 289 -67 436 -123 402 -152 775 -345
994 -514 238 -184 511 -454 668 -663 200 -264 396 -582 507 -825 82 -178 230
-604 247 -710 9 -61 -147 -216 -297 -294 -190 -99 -352 -106 -620 -26 -74 22
-173 45 -220 51 -149 20 -326 -1 -507 -61 -164 -54 -238 -71 -333 -77 -121 -7
-193 5 -384 67 -212 68 -287 82 -446 82 -264 1 -489 -78 -722 -252 -59 -44
-108 -80 -110 -80 -2 0 -3 666 -3 1481 l0 1481 -28 24 c-15 13 -36 24 -47 24
-28 0 -78 -32 -90 -58 -10 -24 -12 -23 -89 51 -166 158 -349 228 -557 214
-198 -14 -406 -107 -525 -233 l-45 -49 -125 -1 c-155 -1 -248 -28 -363 -105
-96 -65 -213 -188 -248 -260 -27 -56 -28 -56 -79 -61 -34 -4 -83 -21 -148 -54
-157 -79 -298 -237 -361 -402 -25 -65 -40 -191 -33 -269 l6 -62 -44 -11 c-116
-31 -275 -149 -364 -270 -48 -66 -101 -175 -125 -262 -26 -90 -36 -258 -22
-352 7 -40 7 -76 3 -85 -5 -9 -41 -54 -80 -101 -117 -141 -167 -264 -178 -441
-13 -206 37 -353 166 -491 l68 -73 -14 -40 c-27 -74 7 -335 56 -440 84 -178
225 -290 421 -334 72 -17 189 -13 249 8 l54 19 86 -88 c91 -94 114 -108 270
-161 151 -52 326 -60 461 -23 30 9 97 36 149 61 79 37 108 59 181 131 96 96
127 151 161 282 11 41 23 77 27 81 4 4 50 -2 102 -13 77 -16 115 -19 205 -14
137 8 189 22 296 77 69 36 218 147 303 226 11 10 16 13 13 7 -4 -6 2 -19 13
-29 11 -10 17 -23 13 -29 -4 -6 26 22 65 62 39 39 76 72 82 72 7 0 8 6 1 17
-5 10 -6 24 0 34 4 9 6 27 4 40 -4 19 18 46 123 148 157 154 276 245 407 310
141 71 240 95 390 95 156 0 235 -14 433 -80 286 -95 449 -96 726 -4 300 100
431 104 727 20 172 -49 279 -64 383 -57 147 11 355 86 460 166 73 55 129 91
141 91 11 0 25 -94 46 -308 13 -134 27 -115 -146 -202 -143 -72 -242 -99 -390
-107 -138 -7 -206 4 -400 67 -239 77 -273 84 -438 77 -156 -6 -225 -21 -441
-97 -238 -83 -352 -79 -661 25 -232 77 -297 89 -451 83 -102 -4 -134 -10 -222
-40 -171 -59 -344 -179 -602 -417 -63 -59 -159 -138 -213 -176 -54 -39 -120
-85 -145 -103 -26 -18 -63 -46 -82 -61 -69 -54 -239 -150 -445 -252 -115 -57
-225 -117 -242 -132 -87 -77 5 -166 142 -138 22 5 34 9 28 10 -7 0 -13 6 -13
12 0 5 5 7 10 4 6 -3 10 -1 10 6 0 7 3 10 6 6 4 -3 13 0 21 8 16 16 38 21 29
6 -4 -5 3 -7 14 -4 11 3 17 9 14 14 -3 5 23 23 58 39 62 29 89 36 101 24 9 -9
-4 -34 -17 -34 -13 0 -96 -39 -84 -40 51 -3 324 146 438 239 43 36 203 150
283 203 21 14 38 29 38 32 -7 55 53 114 389 385 107 86 210 142 326 178 45 13
93 17 204 17 163 0 179 -3 363 -75 165 -65 248 -81 422 -82 l140 -1 180 63
c272 95 268 94 435 88 154 -6 181 -11 355 -75 182 -66 247 -77 435 -76 157 0
170 2 260 32 52 17 135 52 184 77 49 25 92 43 95 40 7 -7 4 -44 -14 -205 -23
-196 -21 -193 -114 -229 -174 -67 -248 -84 -371 -84 -143 0 -238 22 -404 93
-65 28 -157 62 -205 76 -239 69 -325 59 -697 -84 -223 -86 -336 -88 -554 -10
-287 101 -340 117 -419 128 -128 17 -235 -2 -389 -69 -150 -65 -253 -142 -553
-414 -281 -255 -397 -331 -717 -468 -153 -67 -279 -102 -527 -150 l-210 -41
-250 0 c-286 -1 -441 15 -634 62 -153 38 -337 111 -467 186 -55 32 -160 92
-234 134 -185 106 -314 184 -385 235 -86 61 -192 167 -210 212 -23 53 -71 350
-85 518 -27 321 -4 674 66 1035 142 736 415 1274 937 1852 291 320 771 663
1172 835 145 63 347 133 494 173 162 44 487 104 674 124 172 19 539 19 738 0z
m-975 -485 c105 -20 250 -132 313 -243 44 -77 90 -225 97 -316 4 -44 4 -80 1
-80 -3 0 -17 20 -31 44 -59 101 -251 231 -401 271 -197 52 -422 15 -586 -96
-99 -66 -152 -127 -206 -235 -78 -156 -149 -219 -270 -239 -56 -9 -158 18
-203 53 -19 16 -45 48 -58 73 -20 37 -23 55 -20 119 8 147 89 258 243 331 70
34 221 76 232 66 2 -3 -1 -25 -6 -50 -7 -31 -7 -54 0 -75 10 -29 12 -30 75
-29 l65 2 20 44 c74 166 230 310 379 351 96 27 243 30 356 9z m-58 -512 c215
-62 357 -216 422 -458 28 -103 32 -131 36 -299 2 -110 0 -175 -5 -159 -40 119
-129 256 -225 346 -122 113 -239 171 -367 180 -79 6 -105 -5 -125 -54 -15 -36
-11 -87 8 -99 5 -4 48 -15 94 -25 179 -39 292 -126 374 -291 66 -132 66 -156
1 -223 -27 -27 -52 -60 -56 -73 -7 -25 -13 -18 165 -182 120 -110 138 -142
146 -262 l6 -83 -63 62 c-66 64 -134 102 -180 103 -60 0 -41 -44 76 -180 35
-41 85 -110 110 -155 l47 -80 -5 -215 c-3 -118 -11 -240 -17 -270 -7 -30 -32
-94 -56 -142 -24 -47 -51 -117 -60 -155 -27 -111 -110 -243 -202 -321 -80 -67
-142 -101 -242 -133 -83 -27 -105 -30 -175 -26 -111 6 -204 39 -265 94 -52 47
-109 76 -178 91 -41 10 -44 9 -53 -16 -13 -34 -6 -59 42 -159 l40 -83 -16 -62
c-50 -199 -190 -346 -376 -394 -138 -36 -344 -9 -457 59 -118 71 -173 145
-233 314 -29 83 -33 103 -20 97 104 -43 171 -58 276 -58 105 -1 114 1 175 31
86 43 180 120 218 180 56 88 77 165 76 283 -1 119 -12 159 -70 246 -115 173
-375 220 -468 85 -33 -47 -35 -107 -5 -145 25 -32 37 -32 99 -1 27 14 65 25
85 25 49 0 107 -41 147 -103 28 -44 33 -60 33 -112 -2 -155 -143 -295 -300
-295 -161 0 -308 88 -371 223 -45 97 -51 171 -28 320 5 31 2 43 -16 62 -32 34
-85 43 -111 19 -35 -31 -49 -69 -64 -170 -25 -167 -7 -242 101 -420 42 -71 43
-72 37 -146 -4 -53 -1 -98 12 -152 9 -43 14 -81 10 -84 -11 -11 -161 -5 -202
9 -57 18 -139 76 -172 121 -73 99 -116 268 -97 373 7 34 10 36 33 30 42 -10
166 -7 218 6 l48 12 -7 70 c-4 39 -8 72 -9 74 -2 1 -53 7 -115 12 -84 8 -125
16 -165 35 -177 84 -258 266 -217 487 14 74 71 186 118 232 l38 38 47 -61
c105 -135 275 -213 467 -214 225 0 381 113 299 218 -38 49 -51 49 -131 8 -69
-35 -78 -37 -168 -37 -88 0 -100 3 -161 33 -145 73 -248 223 -271 392 -34 260
105 537 320 640 l73 35 20 -25 19 -25 -13 33 c-11 30 -10 35 8 48 19 14 23 11
65 -37 75 -88 176 -142 322 -173 25 -6 27 -8 17 -34 -44 -116 -55 -345 -21
-463 31 -112 104 -213 206 -289 109 -80 202 -110 339 -111 l87 -1 0 -30 c0
-49 29 -148 67 -227 44 -93 160 -213 243 -254 145 -70 353 -91 480 -48 36 13
84 34 108 47 62 37 152 130 195 202 58 100 70 146 65 265 -3 87 -7 111 -31
160 -54 109 -165 191 -298 219 -45 9 -64 8 -113 -6 -67 -20 -103 -53 -112
-103 -8 -44 22 -89 57 -86 13 1 51 5 85 9 47 5 67 3 93 -11 101 -52 147 -171
112 -292 -30 -108 -143 -209 -258 -232 -113 -22 -260 15 -354 90 -112 89 -179
287 -134 396 20 47 19 92 -3 126 -47 71 -93 75 -160 13 -57 -52 -85 -60 -165
-46 -167 31 -303 171 -337 348 -11 59 1 176 26 250 18 51 65 132 105 181 38
46 38 84 0 122 -35 35 -67 37 -124 7 -89 -46 -225 -15 -323 74 -67 62 -95 113
-101 187 -6 69 24 195 63 266 54 97 197 215 261 215 17 0 22 -8 28 -47 24
-163 179 -299 365 -323 113 -14 241 7 311 49 65 41 148 119 165 156 35 79 98
181 140 225 125 133 330 183 522 127z m532 -2987 c0 -18 -39 -64 -83 -99 -15
-12 -17 -11 -17 3 0 9 6 16 14 16 9 0 12 7 9 19 -3 12 3 26 17 38 12 10 28 23
34 30 16 18 26 16 26 -7z m1200 -486 c30 -9 107 -38 170 -64 144 -59 218 -78
340 -86 156 -11 263 12 514 111 247 97 375 88 716 -48 167 -66 252 -82 450
-82 137 1 179 4 250 23 47 12 88 22 93 22 14 0 6 -70 -18 -156 -28 -97 -83
-217 -96 -208 -5 3 -46 -2 -91 -11 -46 -9 -128 -16 -183 -16 -117 1 -197 20
-337 82 -249 109 -407 147 -542 129 -88 -12 -287 -75 -376 -120 -222 -111
-368 -114 -628 -14 -65 25 -128 49 -142 54 -126 46 -306 57 -425 26 -153 -41
-230 -89 -438 -274 -190 -169 -210 -185 -371 -291 -163 -107 -303 -180 -476
-249 -69 -28 -177 -73 -240 -100 -287 -125 -517 -159 -860 -127 -141 13 -228
16 -365 11 -306 -12 -463 10 -716 102 -187 68 -406 138 -461 148 -43 7 -59 26
-140 164 -81 138 -115 209 -148 309 -32 94 -38 151 -17 151 26 0 123 -53 235
-128 310 -207 654 -364 914 -417 495 -100 1104 -58 1543 107 185 69 496 232
625 327 94 69 243 195 335 281 131 124 170 158 250 215 117 84 229 133 340
149 60 9 241 -3 295 -20z m-1271 -87 c-58 -49 -69 -56 -69 -47 0 10 77 70 89
70 3 0 -6 -11 -20 -23z m2769 -463 c35 -7 118 -39 185 -70 205 -95 303 -120
510 -131 l117 -6 0 -26 c0 -40 -61 -169 -136 -291 l-68 -109 -33 34 c-27 28
-40 35 -72 35 -29 0 -80 21 -204 85 -215 112 -313 139 -467 131 -124 -6 -212
-28 -336 -84 -110 -49 -228 -89 -310 -103 -83 -14 -146 -2 -379 76 -222 75
-299 90 -409 82 -142 -10 -309 -84 -455 -199 -199 -157 -389 -290 -547 -383
-45 -26 -101 -65 -124 -87 -48 -45 -117 -78 -165 -78 -103 0 -305 -60 -455
-135 -261 -131 -440 -154 -764 -101 -220 36 -310 41 -431 22 -106 -16 -296
-75 -382 -119 -29 -15 -61 -27 -72 -27 -43 0 -285 225 -426 395 -87 106 -115
151 -115 185 0 23 11 24 60 6 388 -147 461 -160 915 -160 176 -1 419 -5 540
-10 216 -8 223 -8 349 18 71 15 170 42 221 61 51 19 96 35 100 35 4 0 66 25
139 56 72 31 176 73 231 94 55 21 140 57 190 79 144 67 443 283 700 505 199
171 304 213 508 204 95 -5 112 -9 243 -60 183 -73 275 -92 434 -93 149 0 190
11 370 95 69 32 145 63 169 70 117 31 244 33 369 4z m-13 -589 c87 -23 210
-85 306 -156 126 -92 149 -128 116 -185 -14 -24 -132 -154 -140 -154 -2 0 -8
11 -11 24 -4 18 -29 38 -88 71 -126 71 -160 79 -296 72 -101 -6 -339 -39 -346
-49 -2 -2 -12 -24 -24 -49 -56 -117 -11 -151 198 -153 47 0 133 4 191 8 158
13 239 -13 239 -76 0 -10 -37 -53 -82 -97 -99 -95 -230 -199 -228 -180 2 8 2
26 1 42 l-1 28 -142 -3 c-159 -2 -212 9 -322 64 -52 26 -58 32 -41 39 13 5 15
8 5 9 -8 0 -26 9 -40 20 -14 11 -31 20 -39 20 -8 0 -19 7 -25 15 -6 7 -123 71
-259 140 -261 133 -323 155 -442 155 -136 0 -284 -55 -460 -171 -108 -71 -217
-109 -314 -109 -64 0 -97 8 -235 54 -89 30 -188 63 -221 72 l-60 17 55 9 c30
4 64 12 75 17 71 31 149 62 210 81 105 34 308 141 415 220 189 138 287 180
440 187 125 7 201 -12 360 -86 169 -79 223 -94 345 -94 124 0 182 18 370 114
74 38 158 76 187 84 72 19 229 19 303 0z m-1315 -657 c30 -14 93 -54 140 -88
209 -156 406 -262 545 -293 39 -9 116 -21 173 -28 56 -7 102 -16 102 -20 0
-28 -200 -155 -475 -301 -239 -127 -352 -175 -369 -157 -8 9 -8 10 1 5 7 -4
34 3 60 16 26 12 51 23 56 24 4 1 10 2 15 3 4 1 15 8 26 16 23 18 39 130 20
146 -20 16 -170 9 -269 -14 -121 -27 -125 -29 -116 -70 17 -72 61 -127 102
-127 15 0 31 -5 34 -11 4 -5 21 -8 38 -5 l32 6 -30 -15 c-55 -26 -369 -124
-515 -160 -133 -33 -294 -58 -540 -86 -185 -21 -607 6 -940 62 -235 38 -507
115 -517 145 -5 16 62 57 162 99 49 20 165 74 259 121 205 102 288 126 436
127 126 1 238 -24 377 -83 199 -85 384 -97 565 -36 40 13 127 47 193 76 104
44 129 59 191 118 68 63 72 69 67 102 -3 19 -9 40 -14 46 -22 28 -199 -27
-343 -106 -93 -51 -169 -70 -281 -70 -106 0 -169 15 -320 75 -184 74 -252 89
-395 89 -101 -1 -143 -5 -220 -26 -104 -28 -252 -89 -364 -148 -125 -68 -460
-196 -573 -220 -34 -7 -85 -10 -113 -8 -92 9 -348 147 -614 332 -75 52 -73 70
12 112 35 17 89 37 120 44 76 18 314 15 417 -4 246 -47 290 -50 433 -38 167
14 239 33 407 110 240 110 316 134 436 140 135 6 215 -8 354 -62 162 -63 242
-81 365 -81 101 0 108 2 184 37 43 21 122 69 175 107 165 118 207 133 351 128
85 -3 115 -9 160 -29z"/>
<path d="M5566 8617 c-19 -20 -45 -65 -58 -99 l-24 -63 -107 -5 c-161 -8 -150
19 -155 -357 -5 -363 4 -457 43 -490 26 -23 26 -23 393 -23 403 1 395 -1 412
61 6 19 10 195 10 400 0 359 0 366 -21 385 -18 16 -42 20 -155 24 -86 4 -138
10 -146 18 -7 7 -14 41 -16 77 -5 78 -21 96 -92 103 -47 4 -52 3 -84 -31z
m-122 -289 c2 -7 7 -26 12 -43 l9 -30 189 4 189 3 25 30 c15 17 28 26 34 20
10 -10 14 -162 11 -404 l-3 -168 -255 0 -255 0 0 293 c0 162 3 297 7 300 11
11 33 8 37 -5z"/>
<path d="M5481 8150 c-31 -20 -33 -24 -28 -63 9 -63 20 -67 197 -67 182 0 200
6 200 69 0 67 -18 74 -188 79 -136 3 -149 2 -181 -18z"/>
<path d="M5467 7922 c-26 -28 -21 -67 10 -92 27 -21 34 -21 178 -15 143 6 151
8 173 31 27 31 28 48 2 74 -18 18 -33 20 -183 20 -146 0 -166 -2 -180 -18z"/>
<path d="M6490 8183 c-83 -27 -90 -49 -90 -285 0 -159 3 -198 16 -216 15 -22
18 -22 270 -22 l256 0 29 29 29 29 0 199 c0 282 9 273 -292 272 -112 0 -210
-3 -218 -6z m332 -253 c3 -52 4 -98 2 -102 -3 -5 -59 -8 -124 -8 l-119 0 1 98
c1 56 6 100 12 105 6 4 58 6 116 5 l105 -3 7 -95z"/>
<path d="M6668 7933 c17 -2 47 -2 65 0 17 2 3 4 -33 4 -36 0 -50 -2 -32 -4z"/>
<path d="M7272 7575 c-131 -42 -210 -112 -275 -245 -39 -79 -42 -91 -42 -165
0 -114 29 -181 109 -261 69 -68 173 -124 263 -143 89 -18 198 12 291 81 62 46
137 138 153 188 7 19 18 44 25 55 47 67 -16 261 -119 372 -64 68 -116 100
-206 127 -73 21 -112 20 -199 -9z m34 -289 l-6 -134 36 -32 36 -31 99 7 c159
11 184 -8 109 -84 -55 -54 -102 -76 -151 -68 -25 4 -52 1 -75 -9 -35 -14 -37
-14 -80 16 -65 44 -111 96 -130 144 -34 91 18 242 105 301 64 43 65 40 57
-110z m231 81 c43 -45 83 -104 83 -120 0 -11 -74 -18 -115 -11 l-45 6 0 89 c0
108 7 111 77 36z"/>
<path d="M6185 7546 c-118 -29 -183 -85 -257 -221 -27 -51 -33 -73 -36 -146
-6 -111 13 -178 73 -257 77 -102 215 -169 330 -159 104 8 171 41 251 121 84
85 115 145 122 237 15 205 -107 371 -313 425 -60 16 -103 16 -170 0z m40 -232
c3 -30 15 -78 25 -107 17 -50 18 -51 25 -25 4 16 19 34 34 41 22 10 27 21 33
71 4 33 12 64 16 68 10 10 79 -68 108 -122 13 -24 18 -55 18 -102 0 -59 -4
-74 -30 -110 -38 -53 -93 -81 -169 -86 -83 -5 -159 33 -195 98 -52 94 -21 240
63 301 22 16 46 29 52 29 8 0 15 -22 20 -56z"/>
<path d="M5360 7278 c-50 -34 -72 -71 -77 -125 -5 -57 18 -102 69 -134 41 -25
106 -22 172 10 53 26 65 43 72 109 5 39 2 53 -18 82 -54 79 -149 105 -218 58z"/>
<path d="M1835 6990 c-9 -16 -13 -30 -11 -30 3 0 12 14 21 30 9 17 13 30 11
30 -3 0 -12 -13 -21 -30z"/>
<path d="M1781 6894 c-12 -20 -20 -38 -18 -40 2 -2 14 14 26 36 28 50 21 53
-8 4z"/>
<path d="M1735 6810 c-9 -16 -13 -30 -11 -30 3 0 12 14 21 30 9 17 13 30 11
30 -3 0 -12 -13 -21 -30z"/>
<path d="M1687 6728 c-36 -63 -109 -210 -105 -213 2 -2 33 55 71 126 65 126
84 172 34 87z"/>
<path d="M5674 6720 c-53 -21 -54 -30 -54 -377 0 -320 0 -322 22 -343 48 -45
104 -34 133 25 12 28 15 84 15 338 0 303 0 306 -22 331 -26 29 -63 39 -94 26z"/>
<path d="M7888 6722 c-9 -4 -100 -89 -202 -189 -183 -180 -186 -184 -186 -225
0 -42 3 -46 97 -133 54 -49 139 -132 189 -182 82 -84 94 -93 128 -93 33 0 47
10 129 88 51 48 133 123 182 167 98 85 130 131 120 173 -4 18 -71 90 -195 210
-189 182 -218 203 -262 184z m138 -306 c59 -57 105 -109 103 -114 -7 -17 -200
-193 -208 -190 -5 2 -55 47 -111 102 l-103 98 104 104 c57 57 105 104 107 104
1 0 50 -47 108 -104z"/>
<path d="M7860 6350 c-8 -5 -12 -12 -9 -15 4 -3 12 1 19 10 14 17 11 19 -10 5z"/>
<path d="M8019 6317 c19 -20 36 -37 38 -37 10 0 -14 29 -40 49 l-32 25 34 -37z"/>
<path d="M5348 6695 c-14 -14 -28 -39 -32 -56 -11 -58 -7 -596 5 -623 25 -53
104 -58 136 -9 16 24 18 61 21 340 l3 313 -30 30 c-36 37 -70 38 -103 5z"/>
<path d="M5974 6648 c-43 -20 -45 -38 -42 -346 l3 -293 25 -19 c57 -44 122 -8
133 73 3 23 3 157 0 297 -5 239 -7 256 -26 278 -22 23 -58 28 -93 10z"/>
<path d="M6543 6642 c-12 -2 -34 -17 -48 -34 l-26 -31 3 -281 c2 -215 6 -287
17 -308 27 -53 50 -57 354 -55 l279 2 29 33 29 32 0 293 0 293 -29 28 -29 28
-279 2 c-153 0 -288 0 -300 -2z m370 -182 l97 0 0 -175 0 -175 -185 0 -185 0
0 173 c0 96 3 177 8 181 4 5 43 6 87 2 44 -3 124 -6 178 -6z"/>
<path d="M6500 5899 c0 -13 5 -31 10 -39 7 -11 8 -5 4 20 -8 43 -14 51 -14 19z"/>
<path d="M8680 5517 c-14 -12 -32 -31 -40 -42 -8 -11 5 -2 28 20 38 36 47 45
40 45 -2 0 -14 -10 -28 -23z"/>
<path d="M3635 7920 c-10 -11 -13 -20 -8 -20 13 0 38 29 31 35 -3 3 -13 -4
-23 -15z"/>
<path d="M3501 7302 c-35 -6 -134 -110 -165 -174 -53 -108 -70 -270 -41 -383
9 -33 34 -88 57 -123 130 -200 380 -297 594 -231 91 28 129 48 187 99 119 105
172 309 113 435 -35 76 -110 135 -189 150 -78 15 -167 -45 -167 -112 0 -47 24
-70 88 -83 74 -15 92 -32 92 -84 0 -93 -43 -166 -124 -209 -33 -17 -58 -22
-127 -22 -81 0 -91 2 -165 40 -161 82 -212 216 -169 439 16 85 42 150 79 199
38 50 14 73 -63 59z"/>
<path d="M2315 6506 c-63 -31 -86 -51 -119 -100 -28 -42 -36 -116 -13 -134 33
-26 59 -23 145 16 48 22 102 46 121 53 85 32 96 106 22 158 -46 33 -98 36
-156 7z"/>
<path d="M3028 2673 c12 -2 32 -2 45 0 12 2 2 4 -23 4 -25 0 -35 -2 -22 -4z"/>
<path d="M3188 2663 c12 -2 30 -2 40 0 9 3 -1 5 -23 4 -22 0 -30 -2 -17 -4z"/>
<path d="M4993 2683 c15 -2 37 -2 50 0 12 2 0 4 -28 4 -27 0 -38 -2 -22 -4z"/>
<path d="M3338 2173 c6 -2 18 -2 25 0 6 3 1 5 -13 5 -14 0 -19 -2 -12 -5z"/>
<path d="M3393 2163 c9 -2 23 -2 30 0 6 3 -1 5 -18 5 -16 0 -22 -2 -12 -5z"/>
<path d="M4965 1830 c11 -5 27 -9 35 -9 9 0 8 4 -5 9 -11 5 -27 9 -35 9 -9 0
-8 -4 5 -9z"/>
<path d="M4180 1731 c-25 -11 -48 -17 -52 -14 -5 2 -8 -1 -8 -7 0 -12 18 -8
77 16 18 8 33 16 33 19 0 6 3 7 -50 -14z"/>
</g>
</svg>
